<svg width="71" height="44" viewBox="0 0 71 44" fill="none" xmlns="http://www.w3.org/2000/svg">
<path d="M33.0013 14.624C33.0013 14.4353 33.2384 14.3511 33.3567 14.498L36.7806 18.7568C36.9233 18.9344 37.0013 19.156 37.0013 19.3838V33.5C37.0013 33.776 36.7772 33.9998 36.5013 34H33.5013C33.2251 34 33.0013 33.7761 33.0013 33.5V14.624Z" fill="white"/>
<path d="M43.6536 24C43.9564 24 44.2431 24.1371 44.4329 24.373L48.6565 29.627C48.8463 29.8629 49.133 29.9999 49.4358 30H56.5013C56.7772 30.0002 57.0013 30.224 57.0013 30.5V33.5C57.0013 33.776 56.7772 33.9998 56.5013 34H47.5198C47.217 33.9999 46.9303 33.8629 46.7405 33.627L39.262 24.3252C39.1572 24.1943 39.2505 24 39.4183 24H43.6536Z" fill="white"/>
<path d="M25.7542 10C25.9221 10 26.0155 10.1943 25.9104 10.3252L15.2161 23.627C15.0264 23.8629 14.7396 23.9999 14.4368 24H10.2005C10.0327 24 9.93939 23.8057 10.0442 23.6748L20.7395 10.373C20.9294 10.1372 21.2161 10 21.5188 10H25.7542Z" fill="white"/>
<path d="M28.5013 20C28.7772 20.0002 29.0013 20.224 29.0013 20.5V23.5C29.0013 23.776 28.7772 23.9998 28.5013 24H18.4183C18.2506 23.9997 18.1579 23.8055 18.263 23.6748L20.9212 20.373C21.111 20.1373 21.3978 20 21.7005 20H28.5013Z" fill="white"/>
<path d="M59.9515 15C60.1193 15 60.2127 15.1943 60.1077 15.3252L53.4329 23.627C53.2431 23.8629 52.9564 24 52.6536 24H48.4183C48.2505 24 48.1572 23.8057 48.262 23.6748L54.9368 15.373C55.1266 15.1371 55.4133 15.0001 55.7161 15H59.9515Z" fill="white"/>
</svg>
