<svg width="51" height="24" viewBox="0 0 51 24" fill="none" xmlns="http://www.w3.org/2000/svg">
<path d="M23.0013 4.62402C23.0013 4.43529 23.2384 4.35115 23.3567 4.49805L26.7806 8.75684C26.9233 8.93442 27.0013 9.15597 27.0013 9.38379V23.5C27.0013 23.776 26.7772 23.9998 26.5013 24H23.5013C23.2251 24 23.0013 23.7761 23.0013 23.5V4.62402Z" fill="black"/>
<path d="M33.6536 14C33.9564 14 34.2431 14.1371 34.4329 14.373L38.6565 19.627C38.8463 19.8629 39.133 19.9999 39.4358 20H46.5013C46.7772 20.0002 47.0013 20.224 47.0013 20.5V23.5C47.0013 23.776 46.7772 23.9998 46.5013 24H37.5198C37.217 23.9999 36.9303 23.8629 36.7405 23.627L29.262 14.3252C29.1572 14.1943 29.2505 14 29.4183 14H33.6536Z" fill="black"/>
<path d="M15.7542 0C15.9221 -1.5346e-09 16.0155 0.194323 15.9104 0.325195L5.21611 13.627C5.02635 13.8629 4.7396 13.9999 4.43682 14H0.200487C0.0327119 14 -0.0606111 13.8057 0.0442373 13.6748L10.7395 0.373047C10.9294 0.137212 11.2161 2.76754e-09 11.5188 0H15.7542Z" fill="black"/>
<path d="M18.5013 10C18.7772 10.0002 19.0013 10.224 19.0013 10.5V13.5C19.0013 13.776 18.7772 13.9998 18.5013 14H8.41826C8.25059 13.9997 8.15786 13.8055 8.26299 13.6748L10.9212 10.373C11.111 10.1373 11.3978 10 11.7005 10H18.5013Z" fill="black"/>
<path d="M49.9515 5C50.1193 5 50.2127 5.19432 50.1077 5.3252L43.4329 13.627C43.2431 13.8629 42.9564 14 42.6536 14H38.4183C38.2505 14 38.1572 13.8057 38.262 13.6748L44.9368 5.37305C45.1266 5.1371 45.4133 5.00007 45.7161 5H49.9515Z" fill="black"/>
</svg>
